<svg width="250" height="40" viewBox="0 0 276 32" fill="none" xmlns="http://www.w3.org/2000/svg">
<g clip-path="url(#clip0)">
<path d="M19.5506 11.0356C17.2451 14.9703 14.3248 19.9502 13.126 22.0405H22.0712L26.9896 13.6485C24.7456 9.31422 21.7023 8.85313 19.5506 11.0356Z" fill="url(#paint0_linear)"/>
<path d="M30.5863 24.2534L9.22223 24.2227C9.22223 24.2227 5.68717 29.018 8.88409 31.9383H9.46815H10.5133H12.8803H21.0877H29.2952H31.6622H32.7073H33.2914H35.0743L30.5863 24.2534Z" fill="url(#paint1_linear)"/>
<path d="M23.3623 0.215178C22.7475 0.092219 22.102 0.0307397 21.4564 0H21.149H20.8416C18.2902 0.092219 15.954 0.891451 14.1096 2.27474C12.9415 3.13545 11.9886 4.24208 11.2508 5.53314C11.2508 5.53314 3.75037 18.3516 1.59859 22.0403C1.16823 22.7474 0.6764 23.7618 0.307524 24.7147C-0.0920914 25.7291 -0.0920914 26.8357 0.307524 27.8501C0.645661 28.6801 1.1375 29.4179 1.75229 30.0327C3.01262 31.3237 4.76478 31.9693 6.57842 31.9693H8.91463C5.68697 29.0183 9.22203 24.2229 9.22203 24.2229L23.3623 0.215178Z" fill="url(#paint2_linear)"/>
<path d="M42.4206 26.4977C42.4206 26.4054 42.4206 26.3132 42.4206 26.1903C42.4206 26.1595 42.4206 26.1595 42.4206 26.1288C42.3898 25.6369 42.2976 25.1758 42.1132 24.7148C41.7443 23.7926 41.2525 22.7782 40.8529 22.0404C38.7011 18.3516 31.1391 5.53319 31.1391 5.53319C30.678 4.73396 30.1247 3.99621 29.4792 3.35068C29.2025 3.07402 28.0344 1.99813 26.313 2.21331C25.1142 2.36701 24.069 3.1355 23.4542 4.21139L22.4398 5.99429L19.5195 11.0971C21.702 8.91456 24.7145 9.37565 26.9278 13.7099L33.1065 24.3151L37.5022 31.8771C37.8404 31.7849 38.1785 31.6619 38.5166 31.5082C40.1151 30.8319 41.4062 29.5101 42.0824 27.9117C42.2669 27.4813 42.3591 27.051 42.3898 26.5899C42.4206 26.5284 42.4206 26.5284 42.4206 26.4977Z" fill="url(#paint3_linear)"/>
<path d="M50.0137 7.46973H52.5343V22.0711H59.7889V24.2843H50.0137V7.46973V7.46973Z" fill="white"/>
<path d="M69.7177 22.9314C68.7648 23.9766 67.3815 24.5606 65.7216 24.5606C63.6928 24.5606 61.4795 23.2081 61.4795 20.5337C61.4795 17.7671 63.662 16.5376 65.7216 16.5376C67.3508 16.5376 68.7648 17.0601 69.7177 18.136V16.1072C69.7177 14.601 68.4881 13.6788 66.736 13.6788C65.3527 13.6788 64.1538 14.2013 63.078 15.2772L62.0943 13.7095C63.4468 12.3877 65.1068 11.7114 67.0741 11.7114C69.7177 11.7114 71.9617 12.8795 71.9617 15.9842V24.284H69.687V22.9314H69.7177ZM69.7177 19.55C69.0415 18.6279 67.8426 18.1668 66.5823 18.1668C64.9531 18.1668 63.785 19.1504 63.785 20.5952C63.785 22.04 64.9531 23.0236 66.5823 23.0236C67.8426 23.0236 69.0415 22.5318 69.7177 21.6403V19.55Z" fill="white"/>
<path d="M82.3821 14.9394L79.4004 24.2842H77.0641L73.2217 12.1113H75.5886L78.3552 21.3947L81.3984 12.1113H83.3658L86.409 21.3947L89.1756 12.1113H91.5425L87.7308 24.2842H85.3946L82.3821 14.9394Z" fill="white"/>
<path d="M106.421 20.8107H98.1826L96.83 24.2843H94.0635L100.734 7.46973H103.869L110.571 24.2843H107.804L106.421 20.8107ZM98.9203 18.5668H105.714L102.302 9.68298L98.9203 18.5668Z" fill="white"/>
<path d="M120.408 22.5322C119.486 23.731 118.041 24.561 116.412 24.561C113.245 24.561 110.971 22.1633 110.971 18.1979C110.971 14.2939 113.245 11.804 116.412 11.804C117.979 11.804 119.424 12.5725 120.408 13.8636V7.46973H122.683V24.2843H120.408V22.5322ZM120.408 15.6157C119.793 14.6321 118.41 13.8328 117.026 13.8328C114.752 13.8328 113.338 15.6772 113.338 18.2286C113.338 20.7493 114.752 22.5936 117.026 22.5936C118.41 22.5936 119.762 21.8252 120.408 20.8415V15.6157Z" fill="white"/>
<path d="M124.526 12.1113H126.955L130.767 21.6714L134.578 12.1113H137.037L131.965 24.2842H129.506L124.526 12.1113Z" fill="white"/>
<path d="M138.943 8.63761C138.943 7.83838 139.62 7.16211 140.419 7.16211C141.218 7.16211 141.894 7.80764 141.894 8.63761C141.894 9.46759 141.249 10.0824 140.419 10.0824C139.65 10.0516 138.943 9.43685 138.943 8.63761ZM139.312 12.1112H141.587V24.2841H139.312V12.1112Z" fill="white"/>
<path d="M145.122 21.0256C145.952 21.9478 147.581 22.7778 149.21 22.7778C150.932 22.7778 151.823 22.0708 151.823 21.0256C151.823 19.8268 150.44 19.4271 148.872 19.0583C146.812 18.5664 144.384 18.0131 144.384 15.4003C144.384 13.4637 146.044 11.8037 149.026 11.8037C151.116 11.8037 152.622 12.5722 153.667 13.5559L152.653 15.1543C151.946 14.2936 150.593 13.6788 149.056 13.6788C147.519 13.6788 146.567 14.2936 146.567 15.2773C146.567 16.3224 147.888 16.6913 149.395 17.0295C151.516 17.5213 154.036 18.0746 154.036 20.8719C154.036 22.9622 152.315 24.5914 149.118 24.5914C147.089 24.5914 145.275 23.9459 144.046 22.7163L145.122 21.0256Z" fill="white"/>
<path d="M155.328 18.1668C155.328 14.6625 157.695 11.8037 161.476 11.8037C165.288 11.8037 167.624 14.6625 167.624 18.1668C167.624 21.7019 165.288 24.5607 161.476 24.5607C157.695 24.5607 155.328 21.7019 155.328 18.1668ZM165.257 18.1668C165.257 15.8613 163.935 13.8018 161.476 13.8018C159.048 13.8018 157.695 15.8613 157.695 18.1668C157.695 20.4723 159.048 22.5626 161.476 22.5626C163.935 22.5626 165.257 20.503 165.257 18.1668Z" fill="white"/>
<path d="M169.13 12.1111H171.405V13.9862C172.327 12.7874 173.772 11.8345 175.401 11.8345V14.1399C175.186 14.0785 174.909 14.0785 174.632 14.0785C173.495 14.0785 171.958 14.9392 171.435 15.8306V24.284H169.161V12.1111H169.13Z" fill="white"/>
<path d="M189.142 24.0384L182.963 7.43896H184.346L189.818 22.3784L195.32 7.43896H196.673L190.494 24.0384H189.142V24.0384Z" fill="white"/>
<path d="M206.939 13.8019C208.015 15.0315 208.569 16.507 208.569 18.1977C208.569 18.3206 208.538 18.6588 208.538 18.751H197.81C197.963 20.0728 198.486 21.1487 199.408 21.9787C200.33 22.7779 201.498 23.1775 202.851 23.1775C204.757 23.1775 206.202 22.3168 206.939 21.0257L207.984 21.6405C207.001 23.2697 205.126 24.3149 202.82 24.3149C201.007 24.3149 199.5 23.7616 198.332 22.5934C197.164 21.4253 196.58 19.9498 196.58 18.1362C196.58 16.3533 197.133 14.8778 198.271 13.7404C199.439 12.5416 200.914 11.9575 202.697 11.9575C204.449 11.9575 205.863 12.5723 206.939 13.8019ZM199.347 14.3245C198.455 15.1544 197.933 16.2303 197.81 17.5829H207.339C207.216 16.1996 206.693 15.0622 205.833 14.2937C204.941 13.4945 203.927 13.0949 202.728 13.0949C201.375 13.0949 200.269 13.4945 199.347 14.3245Z" fill="white"/>
<path d="M221.387 16.6914V24.0689H220.188V16.6914C220.188 14.4782 218.897 13.0949 216.715 13.0949C214.286 13.0949 212.565 14.7548 212.565 17.798V24.0382H211.366V12.2034H212.565V14.4474C213.426 12.7567 214.84 11.9268 216.807 11.9268C219.604 11.9575 221.387 13.8019 221.387 16.6914Z" fill="white"/>
<path d="M230.794 13.3718H227.259V21.0874C227.259 23.147 228.366 23.2392 230.794 22.9933V24.0692C227.597 24.5303 226.06 23.7003 226.06 21.0874V13.3718H223.447V12.2037H226.06V9.25267L227.259 8.88379V12.2037H230.794V13.3718Z" fill="white"/>
<path d="M242.137 12.2036H243.336V24.0384H242.137V21.7944C241.276 23.4851 239.862 24.315 237.895 24.315C235.067 24.315 233.284 22.4399 233.284 19.5811V12.2036H234.483V19.5811C234.483 21.7944 235.774 23.1777 237.957 23.1777C240.385 23.1777 242.106 21.5177 242.106 18.4745V12.2036H242.137Z" fill="white"/>
<path d="M248.162 14.5397C248.869 12.8798 250.191 12.0498 252.127 12.0498V13.1872C249.883 13.1872 248.162 14.6319 248.162 17.4907V24.069H246.963V12.2035H248.162V14.5397Z" fill="white"/>
<path d="M263.348 13.8019C264.423 15.0315 264.977 16.507 264.977 18.1977C264.977 18.3206 264.946 18.6588 264.946 18.751H254.218C254.372 20.0728 254.894 21.1487 255.816 21.9787C256.739 22.7779 257.907 23.1775 259.259 23.1775C261.165 23.1775 262.61 22.3168 263.348 21.0257L264.393 21.6405C263.409 23.2697 261.534 24.3149 259.228 24.3149C257.415 24.3149 255.909 23.7616 254.74 22.5934C253.572 21.4253 252.988 19.9498 252.988 18.1362C252.988 16.3533 253.542 14.8778 254.679 13.7404C255.847 12.5416 257.323 11.9575 259.105 11.9575C260.858 11.9575 262.302 12.5723 263.348 13.8019ZM255.786 14.3245C254.894 15.1544 254.372 16.2303 254.249 17.5829H263.778C263.655 16.1996 263.132 15.0622 262.272 14.2937C261.38 13.4945 260.366 13.0949 259.167 13.0949C257.784 13.0949 256.677 13.4945 255.786 14.3245Z" fill="white"/>
<path d="M270.632 17.4292C272.692 17.8903 275.274 18.4128 275.274 20.9335C275.274 22.9008 273.583 24.2841 271.032 24.2841C268.757 24.2841 267.128 23.239 266.544 21.6405L267.558 21.0564C268.019 22.3475 269.249 23.1467 271.032 23.1467C272.815 23.1467 274.075 22.3475 274.075 20.9335C274.075 19.7654 272.969 19.0891 271.555 18.7817C269.495 18.2899 266.913 17.798 266.913 15.3081C266.913 14.3552 267.282 13.556 268.019 12.9104C268.788 12.2649 269.741 11.9268 270.94 11.9268C272.846 11.9268 274.29 12.8489 274.967 14.2937L273.983 14.847C273.522 13.6789 272.292 13.0334 270.94 13.0334C269.341 13.0334 268.112 13.9248 268.112 15.2466C268.112 16.4762 269.218 17.091 270.632 17.4292Z" fill="white"/>
</g>
<defs>
<linearGradient id="paint0_linear" x1="15.8359" y1="22.9675" x2="26.9491" y2="8.56732" gradientUnits="userSpaceOnUse">
<stop stop-color="#1EE5D2"/>
<stop offset="0.1556" stop-color="#1EDDCC"/>
<stop offset="0.3986" stop-color="#1EC7BB"/>
<stop offset="0.6987" stop-color="#1EA29F"/>
<stop offset="1" stop-color="#1E777D"/>
</linearGradient>
<linearGradient id="paint1_linear" x1="33.2607" y1="28.1542" x2="3.15978" y2="28.0511" gradientUnits="userSpaceOnUse">
<stop stop-color="#1EE5D2"/>
<stop offset="0.1556" stop-color="#1EDDCC"/>
<stop offset="0.3986" stop-color="#1EC7BB"/>
<stop offset="0.6987" stop-color="#1EA29F"/>
<stop offset="1" stop-color="#1E777D"/>
</linearGradient>
<linearGradient id="paint2_linear" x1="7.69737" y1="22.4601" x2="22.1836" y2="-0.474688" gradientUnits="userSpaceOnUse">
<stop stop-color="#25B6DA"/>
<stop offset="1" stop-color="#007CBF"/>
</linearGradient>
<linearGradient id="paint3_linear" x1="25.8665" y1="8.96611" x2="37.6336" y2="29.4768" gradientUnits="userSpaceOnUse">
<stop stop-color="#25B6DA"/>
<stop offset="1" stop-color="#007CBF"/>
</linearGradient>
<clipPath id="clip0">
<rect width="275.274" height="32" fill="white"/>
</clipPath>
</defs>
<text x="60" y="28" fill="black" font-size="2em">LAW ADVISOR</text>
</svg>
